<svg xmlns="http://www.w3.org/2000/svg" viewBox="0 0 371.33 154"><defs><style>.cls-1{fill:#55aa47;}.cls-2{fill:#231f20;}</style></defs><title>proxelo-logo-long</title><g id="Base_logo_long" data-name="Base logo long"><path class="cls-1" d="M222,145.43l-17.35-30.06c-7.06-11.49-11.5-19-15.73-26.82h-.4c-3.84,7.87-7.67,15.13-14.73,27l-16.33,29.85H137.31l41.54-68.78L138.92,9.49h20.37l18,31.87c5,8.87,8.88,15.73,12.51,23h.6c3.83-8.07,7.26-14.32,12.3-23L221.21,9.49h20.17L200,75.64l42.36,69.79Z"/><path class="cls-2" d="M11.16,32.17a112.08,112.08,0,0,1,18.69-1.46C39.47,30.71,46.52,33,51,37c4.14,3.58,6.6,9.06,6.6,15.77s-2,12.2-5.82,16.12c-5.15,5.48-13.54,8.28-23,8.28a33.42,33.42,0,0,1-7.83-.67v30.21H11.16ZM20.9,68.53a32.52,32.52,0,0,0,8.05.79c11.75,0,18.91-5.71,18.91-16.12,0-10-7-14.77-17.79-14.77a41.34,41.34,0,0,0-9.17.78Z"/><path class="cls-2" d="M68.56,69.43c0-6.38-.11-11.86-.44-16.9h8.61l.34,10.63h.45c2.46-7.27,8.39-11.86,15-11.86a10.43,10.43,0,0,1,2.8.34v9.28A15.1,15.1,0,0,0,92,60.59c-6.94,0-11.86,5.26-13.2,12.64a27,27,0,0,0-.45,4.59v28.87H68.56Z"/><path class="cls-2" d="M153.05,79.16c0,20-13.88,28.76-27,28.76-14.66,0-26-10.74-26-27.86C100.12,61.93,112,51.3,127,51.3,142.53,51.3,153.05,62.6,153.05,79.16Zm-43,.56c0,11.86,6.82,20.81,16.45,20.81,9.4,0,16.45-8.84,16.45-21,0-9.18-4.59-20.82-16.23-20.82S110.08,69.43,110.08,79.72Z"/><path class="cls-2" d="M237.18,80.38c.22,13.32,8.72,18.8,18.57,18.8a35.52,35.52,0,0,0,15-2.8l1.68,7.05c-3.47,1.57-9.4,3.36-18,3.36-16.68,0-26.63-11-26.63-27.3s9.62-29.21,25.4-29.21c17.68,0,22.38,15.56,22.38,25.51a37.16,37.16,0,0,1-.34,4.59Zm28.86-7c.12-6.26-2.57-16-13.65-16-10,0-14.32,9.18-15.1,16Z"/><path class="cls-2" d="M287.75,26.22h9.85v79.45h-9.85Z"/><path class="cls-2" d="M363.17,78.14c0,20-13.88,28.76-27,28.76-14.66,0-26-10.74-26-27.86,0-18.13,11.86-28.76,26.86-28.76C352.65,50.28,363.17,61.58,363.17,78.14Zm-43,.56c0,11.87,6.83,20.82,16.45,20.82,9.4,0,16.45-8.84,16.45-21,0-9.17-4.59-20.81-16.23-20.81S320.2,68.41,320.2,78.7Z"/></g></svg>