<svg id="Base_logo" data-name="Base logo" xmlns="http://www.w3.org/2000/svg" xmlns:xlink="http://www.w3.org/1999/xlink" viewBox="0 0 371.33 371.33"><defs><style>.cls-1{fill:url(#radial-gradient);}.cls-2{fill:#55aa47;}.cls-3{fill:#231f20;}</style><radialGradient id="radial-gradient" cx="188.85" cy="183.6" r="154.55" gradientUnits="userSpaceOnUse"><stop offset="0.51" stop-color="#fff" stop-opacity="0"/><stop offset="1" stop-color="#55aa47"/></radialGradient></defs><title>proxelo-logo</title><path class="cls-1" d="M270.69,356.53l-44.13-76.46c-18-29.25-29.24-48.24-40-68.25h-1c-9.75,20-19.5,38.49-37.46,68.76l-41.56,75.95H55.17l105.71-175L59.28,10.67h51.83l45.67,81.07c12.83,22.58,22.58,40,31.81,58.5h1.54c9.75-20.52,18.47-36.43,31.3-58.5l47.21-81.07H320L214.76,179,322.52,356.53Z"/><path class="cls-2" d="M220.47,256.41l-17.05-29.54c-6.94-11.3-11.3-18.63-15.46-26.37h-.4c-3.77,7.74-7.53,14.87-14.47,26.57L157,256.41H137.2L178,188.8l-39.25-66h20l17.65,31.33c4.95,8.72,8.72,15.46,12.29,22.6h.59c3.77-7.93,7.14-14.08,12.1-22.6l18.24-31.33h19.83l-40.65,65,41.64,68.6Z"/><path class="cls-3" d="M13.19,145.07a110.92,110.92,0,0,1,18.37-1.43c9.46,0,16.39,2.2,20.79,6.16,4.07,3.52,6.49,8.91,6.49,15.51s-2,12-5.72,15.84c-5.06,5.39-13.31,8.14-22.66,8.14a32.94,32.94,0,0,1-7.7-.66v29.7H13.19Zm9.57,35.75a32.09,32.09,0,0,0,7.92.77c11.55,0,18.59-5.61,18.59-15.84,0-9.79-6.93-14.52-17.49-14.52a40.16,40.16,0,0,0-9,.77Z"/><path class="cls-3" d="M69.62,181.7c0-6.27-.11-11.66-.44-16.61h8.47L78,175.54h.44c2.42-7.15,8.25-11.66,14.74-11.66a10.47,10.47,0,0,1,2.75.33v9.13a14.54,14.54,0,0,0-3.3-.33c-6.82,0-11.66,5.17-13,12.43a27.25,27.25,0,0,0-.44,4.51v28.38H69.62Z"/><path class="cls-3" d="M152.67,191.27c0,19.69-13.64,28.27-26.51,28.27-14.41,0-25.52-10.56-25.52-27.39,0-17.82,11.66-28.27,26.4-28.27C142.33,163.88,152.67,175,152.67,191.27Zm-42.24.55c0,11.66,6.71,20.46,16.17,20.46,9.24,0,16.17-8.69,16.17-20.68,0-9-4.51-20.46-16-20.46S110.43,181.7,110.43,191.82Z"/><path class="cls-3" d="M236.25,192.47c.22,13.09,8.58,18.48,18.26,18.48a35,35,0,0,0,14.74-2.75l1.65,6.93c-3.41,1.54-9.24,3.3-17.71,3.3-16.39,0-26.18-10.78-26.18-26.84s9.46-28.71,25-28.71c17.38,0,22,15.29,22,25.08a36.51,36.51,0,0,1-.33,4.51Zm28.38-6.93c.11-6.16-2.53-15.73-13.42-15.73-9.79,0-14.08,9-14.85,15.73Z"/><path class="cls-3" d="M286,139.23h9.68v78.1H286Z"/><path class="cls-3" d="M360.11,190.27c0,19.69-13.64,28.27-26.51,28.27-14.41,0-25.52-10.56-25.52-27.39,0-17.82,11.66-28.27,26.4-28.27C349.77,162.88,360.11,174,360.11,190.27Zm-42.24.55c0,11.66,6.71,20.46,16.17,20.46,9.24,0,16.17-8.69,16.17-20.68,0-9-4.51-20.46-15.95-20.46S317.87,180.7,317.87,190.82Z"/></svg>